<svg width="17" height="16" viewBox="0 0 17 16" fill="none" xmlns="http://www.w3.org/2000/svg">
<path fill-rule="evenodd" clip-rule="evenodd" d="M17 8.41645C17 8.69954 16.8881 8.97105 16.6888 9.17123C16.4896 9.37141 16.2194 9.48387 15.9376 9.48387H3.62887L8.19073 14.0653C8.28951 14.1645 8.36786 14.2823 8.42132 14.412C8.47478 14.5417 8.50229 14.6806 8.50229 14.821C8.50229 14.9614 8.47478 15.1003 8.42132 15.23C8.36786 15.3597 8.28951 15.4775 8.19073 15.5767C8.09196 15.676 7.9747 15.7547 7.84564 15.8084C7.71658 15.8621 7.57826 15.8898 7.43857 15.8898C7.29888 15.8898 7.16056 15.8621 7.0315 15.8084C6.90244 15.7547 6.78518 15.676 6.6864 15.5767L0.312114 9.17218C0.213179 9.07303 0.134683 8.95524 0.0811257 8.82555C0.027568 8.69587 0 8.55685 0 8.41645C0 8.27604 0.027568 8.13702 0.0811257 8.00734C0.134683 7.87765 0.213179 7.75986 0.312114 7.66071L6.6864 1.25615C6.88589 1.05572 7.15645 0.943115 7.43857 0.943115C7.72069 0.943115 7.99125 1.05572 8.19073 1.25615C8.39022 1.45659 8.50229 1.72843 8.50229 2.01189C8.50229 2.29535 8.39022 2.56719 8.19073 2.76763L3.62887 7.34902H15.9376C16.2194 7.34902 16.4896 7.46148 16.6888 7.66166C16.8881 7.86184 17 8.13335 17 8.41645Z" fill="#748690"/>
</svg>
