<svg width="18" height="17" viewBox="0 0 18 17" fill="none" xmlns="http://www.w3.org/2000/svg">
<g clip-path="url(#clip0)">
<path d="M17.0043 7.26355C16.8487 7.07331 16.6066 6.96955 16.3299 6.96955H16.0532V1.76405C16.0532 1.6084 15.9321 1.50464 15.7938 1.50464H14.2373C14.1854 1.50464 14.1335 1.52193 14.099 1.53923L13.4764 1.86781L13.3034 1.69487C13.1997 1.57381 13.0613 1.53923 12.9057 1.53923C12.7673 1.53923 12.629 1.59111 12.5079 1.66028L11.3146 2.4731C11.28 2.4904 11.2627 2.50769 11.2454 2.52499C11.1417 2.62875 11.0898 2.74981 11.0898 2.88816C11.0898 3.00922 11.1244 3.13028 11.1936 3.23404C11.2109 3.26863 11.2454 3.28592 11.2627 3.32051L12.2658 4.34086C12.3004 4.37545 12.3177 4.39274 12.3523 4.41003C12.456 4.47921 12.5771 4.5138 12.6981 4.5138C12.8365 4.5138 12.9748 4.46192 13.0613 4.37545C13.0786 4.35815 13.0959 4.32356 13.1132 4.30627L13.926 3.13028L13.9433 3.11298C14.0298 2.99192 14.0817 2.85357 14.0817 2.71522C14.0817 2.57687 14.0298 2.43852 13.926 2.31746L13.8741 2.26558L14.3065 2.04075H15.5171V6.98684H1.2841C1.00739 6.98684 0.765278 7.09061 0.592338 7.28084C0.419398 7.45378 0.29834 7.6959 0.29834 7.9726C0.29834 8.2493 0.402104 8.49142 0.592338 8.66436C0.765278 8.8373 1.00739 8.95836 1.2841 8.95836H1.50892L1.87209 12.5382C1.92398 13.0225 2.1315 13.4721 2.4428 13.7834C2.75409 14.0947 3.16914 14.2849 3.63608 14.2849C3.73985 14.2849 3.82632 14.3195 3.8782 14.3887C3.94737 14.4579 3.98196 14.5443 3.98196 14.6308C3.98196 14.7346 3.94737 14.821 3.8782 14.8729C3.80902 14.9421 3.72255 14.9767 3.63608 14.9767C3.48044 14.9767 3.37667 15.0977 3.37667 15.2361C3.37667 15.3744 3.49773 15.4955 3.63608 15.4955C3.8782 15.4955 4.10302 15.3917 4.25867 15.2361C4.41431 15.0804 4.51808 14.8556 4.51808 14.6135C4.51808 14.4924 4.48349 14.3714 4.4489 14.2676H13.1478C13.0959 14.3714 13.0786 14.4924 13.0786 14.6135C13.0786 14.8556 13.1651 15.0631 13.3207 15.2188L13.338 15.2361C13.4937 15.3917 13.7185 15.4955 13.9606 15.4955C14.1162 15.4955 14.22 15.3744 14.22 15.2361C14.22 15.0977 14.0989 14.9767 13.9606 14.9767C13.8568 14.9767 13.7704 14.9421 13.7185 14.8729L13.7012 14.8556C13.6493 14.7864 13.6147 14.7173 13.6147 14.6135C13.6147 14.5097 13.6493 14.4233 13.7185 14.3714C13.7877 14.3022 13.8741 14.2676 13.9606 14.2676C14.4448 14.2676 14.8426 14.0774 15.1539 13.7661C15.4652 13.4548 15.6727 13.0052 15.7246 12.5209L16.0878 8.94107H16.3126C16.5893 8.94107 16.8314 8.8373 17.0043 8.64707C17.1773 8.47413 17.2983 8.23201 17.2983 7.95531C17.2983 7.6786 17.1946 7.43649 17.0043 7.26355ZM13.5628 2.74981C13.5628 2.74981 13.5455 2.7671 13.5282 2.80169C13.5282 2.80169 13.5282 2.81898 13.511 2.81898L12.7154 3.97768C12.6981 3.97768 12.6808 3.97768 12.6808 3.96039L11.6778 2.95734C11.6778 2.94004 11.6605 2.92275 11.6605 2.92275L12.8365 2.12722C12.8711 2.10993 12.9057 2.09264 12.923 2.09264H12.9403L13.5628 2.73251V2.74981V2.74981ZM15.2058 12.4518C15.1712 12.8149 15.0155 13.1435 14.7907 13.3683C14.5832 13.5759 14.2892 13.7142 13.9779 13.7142H3.63608C3.3075 13.7142 3.03079 13.5759 2.82326 13.3683C2.58115 13.1435 2.4428 12.8149 2.40821 12.4518L2.04503 8.92377H15.5862L15.2058 12.4518ZM16.6412 8.2666C16.5547 8.35307 16.4509 8.40495 16.3299 8.40495H15.8802H1.73374H1.2841C1.16304 8.40495 1.04198 8.35307 0.972806 8.2666C0.90363 8.18013 0.834454 8.07636 0.834454 7.95531C0.834454 7.83425 0.886336 7.71319 0.972806 7.64401C1.05928 7.55754 1.16304 7.50566 1.2841 7.50566H15.7938H16.3472C16.4682 7.50566 16.572 7.55754 16.6585 7.64401C16.7276 7.71319 16.7795 7.83425 16.7795 7.95531C16.7795 8.07636 16.7276 8.18013 16.6412 8.2666Z" fill="#032336" fill-opacity="0.55"/>
<path d="M11.3838 4.21967C11.28 4.1159 11.1071 4.1159 11.0033 4.21967L10.3807 4.82496C10.2769 4.92872 10.2769 5.10166 10.3807 5.20543C10.4845 5.30919 10.6574 5.30919 10.7612 5.20543L11.3838 4.60014C11.4875 4.49637 11.4875 4.32343 11.3838 4.21967Z" fill="#032336" fill-opacity="0.55"/>
<path d="M11.8507 4.73856C11.7124 4.66939 11.5567 4.73856 11.5048 4.87692L11.2108 5.53409C11.1416 5.65515 11.2108 5.81079 11.3492 5.87997C11.4875 5.94915 11.6432 5.87997 11.6951 5.74162L11.9891 5.08444C12.0582 4.94609 11.9891 4.79045 11.8507 4.73856Z" fill="#032336" fill-opacity="0.55"/>
<path d="M10.8649 3.73548C10.813 3.59713 10.6401 3.54525 10.519 3.59713L9.86188 3.89112C9.72353 3.94301 9.67165 4.11595 9.72353 4.237C9.77541 4.37535 9.94835 4.42724 10.0694 4.37535L10.7266 4.08136C10.8649 4.02948 10.9168 3.85654 10.8649 3.73548Z" fill="#032336" fill-opacity="0.55"/>
</g>
<defs>
<clipPath id="clip0">
<rect width="17" height="17" fill="white" transform="translate(0.29834)"/>
</clipPath>
</defs>
</svg>
