<svg width="20" height="19" viewBox="0 0 20 19" fill="none" xmlns="http://www.w3.org/2000/svg">
<g clip-path="url(#clip0)">
<path d="M17.4491 8.05722V8.0369V4.96845C17.4491 3.58663 16.4737 3.07861 15.5593 3.07861H3.97641C3.06198 3.07861 2.08658 3.56631 2.08658 4.96845V8.0369V8.05722C1.17214 8.15883 0.29834 8.76845 0.29834 10.1706V12.5684C0.29834 12.9749 0.623473 13.3 1.02989 13.3H1.27374V15.1898C1.27374 15.5963 1.59887 15.9214 2.00529 15.9214H2.6962C3.10262 15.9214 3.42775 15.5963 3.42775 15.1898V13.2797H16.1689V15.1898C16.1689 15.5963 16.4941 15.9214 16.9005 15.9214H17.5914C17.9978 15.9214 18.3229 15.5963 18.3229 15.1898V13.2797H18.5668C18.9732 13.2797 19.2983 12.9545 19.2983 12.5481V10.1706C19.2374 8.76845 18.3636 8.15883 17.4491 8.05722ZM2.77748 4.96845H2.81813C2.81813 4.01337 3.44807 3.81016 3.97641 3.81016H15.5593C16.0876 3.81016 16.7176 4.01337 16.7176 4.96845V8.0369H16.1689V6.28931C16.1689 5.88289 15.8438 5.55776 15.4374 5.55776H10.9668C10.5604 5.55776 10.2352 5.88289 10.2352 6.28931V8.0369H9.38176V6.28931C9.38176 5.88289 9.05663 5.55776 8.65021 5.55776H4.17962C3.77321 5.55776 3.44807 5.88289 3.44807 6.28931V8.0369H2.77748V4.96845ZM15.4374 6.28931V8.0369H10.9668V6.28931H15.4374ZM8.69085 6.28931V8.0369H4.22026V6.28931H8.69085ZM2.67588 15.1898H1.98497V13.2797H2.67588V15.1898ZM17.5507 15.1898H16.8598V13.2797H17.5507V15.1898ZM18.5058 12.5684H17.5507H16.8598H2.67588H1.98497H1.00957V11.4914H18.5058V12.5684ZM18.5058 10.7599H1.00957V10.1706C1.00957 8.95134 1.90369 8.76845 2.41171 8.76845H2.79781H4.19994H8.67053H10.9668H15.4374H16.7176H17.1037C17.632 8.76845 18.5058 8.95134 18.5058 10.1706V10.7599Z" fill="#032336" fill-opacity="0.55"/>
</g>
<defs>
<clipPath id="clip0">
<rect width="19" height="19" fill="white" transform="translate(0.29834)"/>
</clipPath>
</defs>
</svg>
