<svg width="72" class="burger" height="28" viewBox="0 0 72 28" fill="none" xmlns="http://www.w3.org/2000/svg">
<rect width="72" height="28" rx="14" fill="#748690"/>
<path d="M50.5 14.4999C52.0655 14.4999 53.3334 13.232 53.3334 11.6666C53.3334 10.1012 52.0655 8.83325 50.5 8.83325C48.9346 8.83325 47.6667 10.1012 47.6667 11.6666C47.6667 13.232 48.9346 14.4999 50.5 14.4999ZM50.5 15.9166C48.6088 15.9166 44.8334 16.8658 44.8334 18.7499V20.1666H56.1667V18.7499C56.1667 16.8658 52.3913 15.9166 50.5 15.9166Z" fill="white"/>
<path d="M17.5 19H32.5V17.3333H17.5V19ZM17.5 14.8333H32.5V13.1667H17.5V14.8333ZM17.5 9V10.6667H32.5V9H17.5Z" fill="white"/>
</svg>
