<svg width="17" class="camera" height="13" viewBox="0 0 17 13" fill="none" xmlns="http://www.w3.org/2000/svg">
<path d="M8.23677 10C10.0636 10 11.5445 8.60089 11.5445 6.875C11.5445 5.14911 10.0636 3.75 8.23677 3.75C6.40998 3.75 4.92908 5.14911 4.92908 6.875C4.92908 8.60089 6.40998 10 8.23677 10Z" fill="white"/>
<path d="M14.8521 1.875H12.7542C12.489 1.875 12.2399 1.77735 12.0523 1.60034L10.8429 0.457763C10.5305 0.162656 10.1151 0 9.67324 0H6.80033C6.35844 0 5.94304 0.162656 5.63068 0.457763L4.42131 1.60034C4.23364 1.77735 3.9846 1.875 3.71941 1.875H1.62142C0.891708 1.875 0.29834 2.43559 0.29834 3.12497V11.2499C0.29834 11.9393 0.891708 12.5 1.62142 12.5H14.8522C15.5819 12.5 16.1753 11.9394 16.1753 11.2499V3.12497C16.1752 2.43559 15.5819 1.875 14.8521 1.875ZM8.23679 10.625C6.04804 10.625 4.26756 8.94282 4.26756 6.87497C4.26756 4.80711 6.04804 3.12497 8.23679 3.12497C10.4255 3.12497 12.206 4.80711 12.206 6.87497C12.206 8.94282 10.4255 10.625 8.23679 10.625ZM13.5291 4.99997C13.1644 4.99997 12.8676 4.71951 12.8676 4.37498C12.8676 4.03045 13.1644 3.74999 13.5291 3.74999C13.8938 3.74999 14.1906 4.03045 14.1906 4.37498C14.1906 4.71951 13.8938 4.99997 13.5291 4.99997Z" fill="white"/>
</svg>
