<svg width="12" height="13" viewBox="0 0 12 13" fill="none" xmlns="http://www.w3.org/2000/svg">
<path fill-rule="evenodd" clip-rule="evenodd" d="M0 0.464298C0 0.341159 0.0486262 0.223063 0.135181 0.13599C0.221737 0.048917 0.339131 0 0.461538 0H11.5385C11.6609 0 11.7783 0.048917 11.8648 0.13599C11.9514 0.223063 12 0.341159 12 0.464298V2.32149C12 2.43599 11.9579 2.54645 11.8818 2.63164L7.84615 7.14277V11.6075C7.84608 11.7049 7.81556 11.7998 7.7589 11.8788C7.70224 11.9578 7.62233 12.0168 7.53046 12.0476L4.76123 12.9762C4.69188 12.9994 4.61804 13.0058 4.54579 12.9947C4.47353 12.9836 4.40492 12.9554 4.34562 12.9124C4.28631 12.8695 4.238 12.8129 4.20466 12.7475C4.17132 12.682 4.1539 12.6096 4.15385 12.5361V7.14277L0.118154 2.63164C0.0420998 2.54645 2.04465e-05 2.43599 0 2.32149V0.464298Z" fill="#748690"/>
</svg>
