<svg width="23" class="svg-icon heart" height="20" viewBox="0 0 23 20" fill="none" xmlns="http://www.w3.org/2000/svg">
<path d="M10.8932 3.1486L11.2983 3.70884L11.7035 3.14862C12.0904 2.61362 12.5258 2.16005 13.0017 1.79188C13.9398 1.06646 14.9957 0.703125 16.1526 0.703125C17.7137 0.703125 19.1425 1.32629 20.1855 2.45752C21.2179 3.5774 21.7983 5.12056 21.7983 6.81461C21.7983 8.53174 21.1652 10.1258 19.7315 11.8556L19.7315 11.8556C18.4335 13.4219 16.5579 15.0224 14.3305 16.9204L14.3304 16.9205L14.3114 16.9367C13.5591 17.5779 12.7053 18.3056 11.8193 19.0804L11.8191 19.0807C11.6755 19.2064 11.4905 19.2761 11.2983 19.2761C11.1062 19.2761 10.9213 19.2065 10.7773 19.0804L10.777 19.0801C9.88448 18.2997 9.02523 17.5674 8.26926 16.9231L8.26674 16.921L8.26672 16.9209C6.03902 15.0225 4.16333 13.4219 2.86533 11.8557C1.43164 10.1258 0.79834 8.53171 0.79834 6.81477C0.79834 5.12056 1.37879 3.57741 2.41104 2.45752C3.45402 1.3263 4.88297 0.703125 6.44405 0.703125C7.60098 0.703125 8.65686 1.06646 9.59479 1.79186L9.59481 1.79188C10.0709 2.16003 10.5064 2.61377 10.8932 3.1486Z" stroke="#748690"/>
</svg>
