<svg width="23" class="heart-red" height="20" viewBox="0 0 23 20" fill="none" xmlns="http://www.w3.org/2000/svg">
<path d="M10.8937 3.1486L11.2988 3.70884L11.704 3.14862C12.0909 2.61362 12.5263 2.16005 13.0022 1.79188C13.9403 1.06646 14.9962 0.703125 16.1531 0.703125C17.7142 0.703125 19.143 1.32629 20.186 2.45752C21.2184 3.5774 21.7988 5.12056 21.7988 6.81461C21.7988 8.53174 21.1657 10.1258 19.732 11.8556L19.732 11.8556C18.434 13.4219 16.5583 15.0224 14.331 16.9204L14.3309 16.9205L14.3118 16.9367C13.5596 17.5779 12.7058 18.3056 11.8198 19.0804L11.8196 19.0807C11.676 19.2064 11.491 19.2761 11.2988 19.2761C11.1067 19.2761 10.9218 19.2065 10.7778 19.0804L10.7775 19.0801C9.88497 18.2997 9.02571 17.5674 8.26974 16.9231L8.26723 16.921L8.26721 16.9209C6.03951 15.0225 4.16382 13.4219 2.86582 11.8557C1.43213 10.1258 0.798828 8.53171 0.798828 6.81477C0.798828 5.12056 1.37928 3.57741 2.41153 2.45752C3.45451 1.3263 4.88346 0.703125 6.44453 0.703125C7.60147 0.703125 8.65735 1.06646 9.59528 1.79186L9.5953 1.79188C10.0714 2.16003 10.5069 2.61377 10.8937 3.1486Z" fill="#FA004B" stroke="#FA004B"/>
</svg>
