<svg  class="houses" viewBox="110 -50 100 100" fill="none" xmlns="http://www.w3.org/2000/svg">
<path d="M301.433 32.8147C301.292 32.8147 301.15 32.7621 301.026 32.657L285.146 16.8021L269.267 32.657C269.054 32.8848 268.682 32.8848 268.47 32.657C268.258 32.4293 268.258 32.0789 268.47 31.8686L284.757 15.6108C284.969 15.383 285.341 15.383 285.554 15.6108L301.841 31.8686C302.053 32.0964 302.053 32.4468 301.841 32.657C301.734 32.7621 301.575 32.8147 301.433 32.8147Z" fill="#748690" fill-opacity="0.8"/>
<path d="M293.361 49.9476H276.932C276.614 49.9476 276.366 49.7023 276.366 49.387V33.5496H273.533C273.303 33.5496 273.108 33.4094 273.02 33.1992C272.931 32.9889 272.984 32.7437 273.144 32.586L284.757 20.9882C284.969 20.778 285.341 20.778 285.554 20.9882L297.167 32.586C297.326 32.7437 297.379 32.9889 297.291 33.1992C297.202 33.4094 296.99 33.5496 296.778 33.5496H293.945V49.387C293.927 49.6848 293.679 49.9476 293.361 49.9476ZM277.499 48.8089H292.812V32.9714C292.812 32.6561 293.06 32.4108 293.379 32.4108H295.414L285.164 22.162L274.914 32.4108H276.95C277.269 32.4108 277.516 32.6561 277.516 32.9714V48.8089H277.499Z" fill="#748690" fill-opacity="0.8"/>
<path d="M296.778 28.1536C296.459 28.1536 296.211 27.9083 296.211 27.5929V16.5558H293.166V23.4409C293.166 23.7562 292.918 24.0015 292.6 24.0015C292.281 24.0015 292.033 23.7562 292.033 23.4409V15.9952C292.033 15.6798 292.281 15.4346 292.6 15.4346H296.76C297.079 15.4346 297.326 15.6798 297.326 15.9952V27.5929C297.326 27.9083 297.079 28.1536 296.778 28.1536Z" fill="#748690" fill-opacity="0.8"/>
<path d="M283.536 38.7352H280.313C279.995 38.7352 279.747 38.4899 279.747 38.1745V34.951C279.747 34.6357 279.995 34.3904 280.313 34.3904H283.536C283.854 34.3904 284.102 34.6357 284.102 34.951V38.1745C284.102 38.4724 283.854 38.7352 283.536 38.7352ZM280.88 37.6139H282.969V35.5291H280.88V37.6139Z" fill="#748690" fill-opacity="0.8"/>
<path d="M289.98 38.7352H286.758C286.439 38.7352 286.191 38.4899 286.191 38.1745V34.951C286.191 34.6357 286.439 34.3904 286.758 34.3904H289.98C290.298 34.3904 290.546 34.6357 290.546 34.951V38.1745C290.546 38.4724 290.298 38.7352 289.98 38.7352ZM287.324 37.6139H289.413V35.5291H287.324V37.6139Z" fill="#748690" fill-opacity="0.8"/>
<path d="M283.536 45.1648H280.313C279.995 45.1648 279.747 44.9196 279.747 44.6042V41.3807C279.747 41.0653 279.995 40.8201 280.313 40.8201H283.536C283.854 40.8201 284.102 41.0653 284.102 41.3807V44.6042C284.102 44.9196 283.854 45.1648 283.536 45.1648ZM280.88 44.0436H282.969V41.9588H280.88V44.0436Z" fill="#748690" fill-opacity="0.8"/>
<path d="M289.98 45.1648H286.758C286.439 45.1648 286.191 44.9196 286.191 44.6042V41.3807C286.191 41.0653 286.439 40.8201 286.758 40.8201H289.98C290.298 40.8201 290.546 41.0653 290.546 41.3807V44.6042C290.546 44.9196 290.298 45.1648 289.98 45.1648ZM287.324 44.0436H289.413V41.9588H287.324V44.0436Z" fill="#748690" fill-opacity="0.8"/>
<path d="M171.686 32.8136C171.545 32.8136 171.403 32.7611 171.279 32.656L155.258 16.801L139.236 32.656C139.006 32.8837 138.652 32.8837 138.44 32.656C138.209 32.4282 138.209 32.0778 138.44 31.8676L154.85 15.5922C155.081 15.3644 155.435 15.3644 155.647 15.5922L172.076 31.8501C172.306 32.0778 172.306 32.4282 172.076 32.6384C171.969 32.7611 171.828 32.8136 171.686 32.8136Z" fill="#748690" fill-opacity="0.8"/>
<path d="M146.388 33.4619H143.52C143.29 33.4619 143.078 33.3217 142.989 33.1115C142.901 32.9012 142.954 32.656 143.113 32.4983L154.833 20.9005C155.063 20.6728 155.417 20.6728 155.629 20.9005L167.349 32.4983C167.508 32.656 167.561 32.9012 167.473 33.1115C167.384 33.3217 167.172 33.4619 166.942 33.4619H164.109V40.6097H162.976H146.371L146.388 33.4619ZM162.959 33.1115C162.959 32.7961 163.206 32.5333 163.525 32.5333H165.579L155.222 22.0919L144.866 32.5333H146.919C147.238 32.5333 147.486 32.7961 147.486 33.1115V40.9776H162.923V33.1115H162.959Z" fill="#748690" fill-opacity="0.8"/>
<path d="M166.977 28.1536C166.659 28.1536 166.411 27.9083 166.411 27.593V16.5558H163.348V23.4409C163.348 23.7562 163.1 24.0015 162.782 24.0015C162.463 24.0015 162.215 23.7562 162.215 23.4409V15.9952C162.215 15.6798 162.463 15.4346 162.782 15.4346H166.977C167.296 15.4346 167.544 15.6798 167.544 15.9952V27.593C167.544 27.9083 167.278 28.1536 166.977 28.1536Z" fill="#748690" fill-opacity="0.8"/>
<path d="M158.745 36.7554H151.735C151.416 36.7554 151.168 36.5102 151.168 36.1948V32.9713C151.168 32.6559 151.416 32.4106 151.735 32.4106H158.745C159.064 32.4106 159.312 32.6559 159.312 32.9713V36.1948C159.329 36.4926 159.064 36.7554 158.745 36.7554ZM152.301 35.6342H158.179V33.5319H152.301V35.6342Z" fill="#748690" fill-opacity="0.8"/>
<path d="M48.9141 41.5557H32.3261C32.0075 41.5557 31.7596 41.4331 31.7596 41.2579V32.7085C31.7596 32.5508 32.0075 32.4106 32.3261 32.4106H48.9141C49.2327 32.4106 49.4806 32.5333 49.4806 32.7085V41.2579C49.4806 41.4331 49.215 41.5557 48.9141 41.5557ZM32.8926 40.9776H48.3299V33.0238H32.8926V40.9776Z" fill="#748690" fill-opacity="0.8"/>
<path d="M52.3485 33.5495H28.8917C28.6616 33.5495 28.4491 33.4094 28.3606 33.1991C28.2721 32.9889 28.3252 32.7436 28.4845 32.586L40.2041 20.9882C40.4342 20.7604 40.7883 20.7604 41.0007 20.9882L52.7203 32.586C52.8796 32.7436 52.9327 32.9889 52.8442 33.1991C52.7734 33.4094 52.5787 33.5495 52.3485 33.5495ZM30.2726 32.4283H50.9677L40.6113 22.1795L30.2726 32.4283Z" fill="#748690" fill-opacity="0.8"/>
<path d="M81.2225 49.9475L21.2439 49.965C20.7836 49.965 20.3941 49.7198 20.3941 49.4044V41.2054C20.3941 40.89 20.7659 40.6448 21.2439 40.6448H80.5498C81.0101 40.6448 81.3996 40.89 81.3996 41.2054V49.4044C81.3996 49.7022 81.6828 49.9475 81.2225 49.9475ZM21.5271 48.8263H80.2666V41.7485H21.5271V48.8263Z" fill="#748690" fill-opacity="0.8"/>
<path d="M58.3853 41.7485C58.0667 41.7485 57.8188 41.5032 57.8188 41.1878V27.6805C57.8188 27.3651 58.0667 27.1199 58.3853 27.1199C58.704 27.1199 58.9518 27.3651 58.9518 27.6805V41.1878C58.9518 41.5032 58.704 41.7485 58.3853 41.7485Z" fill="#748690" fill-opacity="0.8"/>
<path d="M58.3854 34.2152C58.2437 34.2152 58.1021 34.1627 57.9782 34.0576C57.748 33.8298 57.748 33.4794 57.9782 33.2692L61.5011 29.7829C61.7313 29.5551 62.0853 29.5551 62.2978 29.7829C62.5279 30.0106 62.5279 30.361 62.2978 30.5712L58.7748 34.0576C58.6863 34.1627 58.527 34.2152 58.3854 34.2152Z" fill="#748690" fill-opacity="0.8"/>
<path d="M58.3853 37.0358C58.2437 37.0358 58.1021 36.9832 57.9781 36.8781L54.4552 33.3918C54.2251 33.164 54.2251 32.8137 54.4552 32.6034C54.6853 32.3757 55.0394 32.3757 55.2518 32.6034L58.7748 36.0898C59.0049 36.3175 59.0049 36.6679 58.7748 36.8781C58.6863 36.9832 58.5269 37.0358 58.3853 37.0358Z" fill="#748690" fill-opacity="0.8"/>
<path d="M58.3853 28.2412C56.8806 28.2412 55.659 27.0323 55.659 25.5432C55.659 24.054 56.8806 22.8452 58.3853 22.8452C59.8901 22.8452 61.1116 24.054 61.1116 25.5432C61.1116 27.0323 59.8901 28.2412 58.3853 28.2412ZM58.3853 23.984C57.5179 23.984 56.792 24.6847 56.792 25.5607C56.792 26.4191 57.5002 27.1374 58.3853 27.1374C59.2705 27.1374 59.9786 26.4367 59.9786 25.5607C59.9786 24.6847 59.2528 23.984 58.3853 23.984Z" fill="#748690" fill-opacity="0.8"/>
<path d="M253.582 41.0654C253.263 41.0654 253.015 40.8201 253.015 40.5047V26.9974C253.015 26.682 253.263 26.4368 253.582 26.4368C253.9 26.4368 254.148 26.682 254.148 26.9974V40.5047C254.148 40.8201 253.9 41.0654 253.582 41.0654Z" fill="#748690" fill-opacity="0.8"/>
<path d="M253.582 33.5321C253.44 33.5321 253.298 33.4795 253.174 33.3744C252.944 33.1467 252.944 32.7963 253.174 32.586L256.697 29.0822C256.927 28.8544 257.281 28.8544 257.494 29.0822C257.724 29.3099 257.724 29.6603 257.494 29.8706L253.971 33.3569C253.865 33.4795 253.723 33.5321 253.582 33.5321Z" fill="#748690" fill-opacity="0.8"/>
<path d="M253.581 36.3527C253.44 36.3527 253.298 36.3001 253.174 36.195L249.651 32.7087C249.421 32.4809 249.421 32.1306 249.651 31.9203C249.882 31.6926 250.236 31.6926 250.448 31.9203L253.971 35.4067C254.201 35.6344 254.201 35.9848 253.971 36.195C253.865 36.2826 253.723 36.3527 253.581 36.3527Z" fill="#748690" fill-opacity="0.8"/>
<path d="M253.582 27.5578C252.077 27.5578 250.855 26.349 250.855 24.8598C250.855 23.3707 252.077 22.1619 253.582 22.1619C255.086 22.1619 256.308 23.3707 256.308 24.8598C256.308 26.349 255.086 27.5578 253.582 27.5578ZM253.582 23.2831C252.714 23.2831 251.988 23.9839 251.988 24.8598C251.988 25.7183 252.696 26.4366 253.582 26.4366C254.467 26.4366 255.175 25.7358 255.175 24.8598C255.157 24.0014 254.449 23.2831 253.582 23.2831Z" fill="#748690" fill-opacity="0.8"/>
<path d="M114.841 49.9474H98.2531C97.9345 49.9474 97.6866 49.7022 97.6866 49.3868V32.9713C97.6866 32.6559 97.9345 32.4106 98.2531 32.4106H114.841C115.16 32.4106 115.408 32.6559 115.408 32.9713V49.3868C115.408 49.6846 115.16 49.9474 114.841 49.9474ZM98.8196 48.8087H114.257V33.5319H98.8196V48.8087Z" fill="#748690" fill-opacity="0.8"/>
<path d="M132.261 49.9474H80.8331C80.5144 49.9474 80.2666 49.7022 80.2666 49.3868V27.6629C80.2666 27.3476 80.5144 27.1023 80.8331 27.1023H100.183C100.413 27.1023 100.625 27.2424 100.714 27.4527C100.802 27.6629 100.749 27.9082 100.59 28.0659L96.1996 32.4106H116.895L112.504 28.0659C112.345 27.9082 112.292 27.6629 112.38 27.4527C112.469 27.2424 112.681 27.1023 112.911 27.1023H132.261C132.58 27.1023 132.828 27.3476 132.828 27.6629V49.3868C132.828 49.6846 132.58 49.9474 132.261 49.9474ZM81.3996 48.8087H131.695V28.2235H114.275L118.665 32.5683C118.824 32.726 118.877 32.9712 118.789 33.1815C118.7 33.3917 118.488 33.5319 118.258 33.5319H94.8187C94.5885 33.5319 94.3761 33.3917 94.2876 33.1815C94.1991 32.9712 94.2522 32.726 94.4115 32.5683L98.8019 28.2235H81.3819V48.8087H81.3996Z" fill="#748690" fill-opacity="0.8"/>
<path d="M118.276 33.5319H94.8187C94.5886 33.5319 94.3762 33.3918 94.2876 33.1816C94.1991 32.9713 94.2522 32.7261 94.4116 32.5684L106.131 20.9706C106.361 20.7429 106.715 20.7429 106.928 20.9706L118.647 32.5684C118.807 32.7261 118.86 32.9713 118.771 33.1816C118.718 33.3918 118.506 33.5319 118.276 33.5319ZM96.1996 32.4107H116.895L106.538 22.1619L96.1996 32.4107Z" fill="#748690" fill-opacity="0.8"/>
<path d="M137.678 28.2235H112.911C112.752 28.2235 112.61 28.1709 112.504 28.0658L106.538 22.1793L100.59 28.0658C100.484 28.1709 100.342 28.2235 100.183 28.2235H75.4159C75.2212 28.2235 75.0619 28.1359 74.9556 27.9782C74.8494 27.8205 74.8317 27.6278 74.8848 27.4526L80.302 13.0693C80.3906 12.8416 80.603 12.7014 80.8331 12.7014H132.261C132.491 12.7014 132.704 12.8416 132.792 13.0693L138.209 27.4526C138.28 27.6278 138.245 27.8205 138.139 27.9782C138.032 28.1359 137.855 28.2235 137.678 28.2235ZM113.142 27.1023H136.846L131.872 13.8402H81.2226L76.2303 27.1023H99.935L106.131 20.9705C106.361 20.7428 106.715 20.7428 106.928 20.9705L113.142 27.1023Z" fill="#748690" fill-opacity="0.8"/>
<path d="M90.5877 38.6299H87.3302C87.0116 38.6299 86.7637 38.3847 86.7637 38.0693V34.8458C86.7637 34.5304 87.0116 34.2852 87.3302 34.2852H90.5877C90.9063 34.2852 91.1542 34.5304 91.1542 34.8458V38.0693C91.1542 38.3672 90.9063 38.6299 90.5877 38.6299ZM87.8967 37.4912H90.0034V35.4064H87.8967V37.4912Z" fill="#748690" fill-opacity="0.8"/>
<path d="M90.5877 44.5164H87.3302C87.0116 44.5164 86.7637 44.2711 86.7637 43.9558V40.7322C86.7637 40.4169 87.0116 40.1716 87.3302 40.1716H90.5877C90.9063 40.1716 91.1542 40.4169 91.1542 40.7322V43.9558C91.1542 44.2711 90.9063 44.5164 90.5877 44.5164ZM87.8967 43.3952H90.0034V41.3104H87.8967V43.3952Z" fill="#748690" fill-opacity="0.8"/>
<path d="M125.764 38.6299H122.507C122.188 38.6299 121.94 38.3847 121.94 38.0693V34.8458C121.94 34.5304 122.188 34.2852 122.507 34.2852H125.764C126.083 34.2852 126.33 34.5304 126.33 34.8458V38.0693C126.33 38.3672 126.083 38.6299 125.764 38.6299ZM123.073 37.4912H125.18V35.4064H123.073V37.4912Z" fill="#748690" fill-opacity="0.8"/>
<path d="M125.764 44.5164H122.507C122.188 44.5164 121.94 44.2711 121.94 43.9558V40.7322C121.94 40.4169 122.188 40.1716 122.507 40.1716H125.764C126.083 40.1716 126.33 40.4169 126.33 40.7322V43.9558C126.33 44.2711 126.083 44.5164 125.764 44.5164ZM123.073 43.3952H125.18V41.3104H123.073V43.3952Z" fill="#748690" fill-opacity="0.8"/>
<path d="M109.229 49.9474H103.865C103.546 49.9474 103.299 49.7021 103.299 49.3868V36.7379C103.299 36.4225 103.546 36.1772 103.865 36.1772H109.229C109.548 36.1772 109.796 36.4225 109.796 36.7379V49.3868C109.796 49.6846 109.548 49.9474 109.229 49.9474ZM104.432 48.8086H108.663V37.281H104.432V48.8086Z" fill="#748690" fill-opacity="0.8"/>
<path d="M212.74 49.9474H196.152C195.834 49.9474 195.586 49.7022 195.586 49.3868V32.9713C195.586 32.6559 195.834 32.4106 196.152 32.4106H212.74C213.059 32.4106 213.307 32.6559 213.307 32.9713V49.3868C213.307 49.6846 213.059 49.9474 212.74 49.9474ZM196.719 48.8087H212.156V33.5319H196.719V48.8087Z" fill="#748690" fill-opacity="0.8"/>
<path d="M230.16 49.9474H178.732C178.414 49.9474 178.166 49.7021 178.166 49.3868V27.6629C178.166 27.3476 178.414 27.1023 178.732 27.1023H198.082C198.312 27.1023 198.524 27.2424 198.613 27.4527C198.701 27.6629 198.648 27.9082 198.489 28.0659L194.099 32.4106H214.794L210.403 28.0659C210.244 27.9082 210.191 27.6629 210.279 27.4527C210.368 27.2424 210.58 27.1023 210.811 27.1023H230.16C230.479 27.1023 230.727 27.3476 230.727 27.6629V49.3868C230.727 49.6846 230.479 49.9474 230.16 49.9474ZM179.299 48.8087H229.594V28.2235H212.174L216.564 32.5683C216.723 32.726 216.777 32.9712 216.688 33.1815C216.599 33.3917 216.387 33.5319 216.157 33.5319H192.718C192.488 33.5319 192.275 33.3917 192.187 33.1815C192.098 32.9712 192.151 32.726 192.311 32.5683L196.701 28.2235H179.281V48.8087H179.299Z" fill="#748690" fill-opacity="0.8"/>
<path d="M216.175 33.5319H192.735C192.505 33.5319 192.293 33.3918 192.204 33.1816C192.116 32.9713 192.169 32.7261 192.328 32.5684L204.048 20.9706C204.278 20.7429 204.632 20.7429 204.845 20.9706L216.564 32.5684C216.723 32.7261 216.777 32.9713 216.688 33.1816C216.6 33.3918 216.405 33.5319 216.175 33.5319ZM194.099 32.4107H214.794L204.437 22.1619L194.099 32.4107Z" fill="#748690" fill-opacity="0.8"/>
<path d="M189.531 21.6012H184.167C183.848 21.6012 183.601 21.3559 183.601 21.0406V8.39167C183.601 8.07632 183.848 7.83105 184.167 7.83105H189.531C189.85 7.83105 190.098 8.07632 190.098 8.39167V21.0406C190.115 21.3559 189.85 21.6012 189.531 21.6012ZM184.751 20.48H188.982V8.95229H184.751V20.48Z" fill="#748690" fill-opacity="0.8"/>
<path d="M235.577 28.2235H210.811C210.651 28.2235 210.51 28.1709 210.403 28.0658L204.437 22.1793L198.489 28.0658C198.383 28.1709 198.241 28.2235 198.082 28.2235H173.315C173.12 28.2235 172.961 28.1359 172.855 27.9782C172.748 27.8205 172.731 27.6278 172.784 27.4526L178.024 13.4898C178.113 13.227 178.378 13.0868 178.661 13.1394C178.927 13.192 179.122 13.4197 179.122 13.7V20.48H194.559V13.262C194.559 12.9467 194.807 12.7014 195.125 12.7014H230.143C230.373 12.7014 230.585 12.8416 230.674 13.0693L236.091 27.4526C236.162 27.6278 236.126 27.8205 236.02 27.9782C235.931 28.1359 235.754 28.2235 235.577 28.2235ZM211.041 27.1023H234.745L229.771 13.8402H195.727V21.0581C195.727 21.3735 195.479 21.6187 195.161 21.6187H178.573C178.254 21.6187 178.006 21.3735 178.006 21.0581V16.8535L174.147 27.1198H197.852L204.048 20.988C204.278 20.7603 204.632 20.7603 204.845 20.988L211.041 27.1023Z" fill="#748690" fill-opacity="0.8"/>
<path d="M188.487 38.6299H185.229C184.911 38.6299 184.663 38.3847 184.663 38.0693V34.8458C184.663 34.5304 184.911 34.2852 185.229 34.2852H188.487C188.805 34.2852 189.053 34.5304 189.053 34.8458V38.0693C189.053 38.3671 188.805 38.6299 188.487 38.6299ZM185.796 37.4912H187.902V35.4064H185.796V37.4912Z" fill="#748690" fill-opacity="0.8"/>
<path d="M188.487 44.5164H185.229C184.911 44.5164 184.663 44.2711 184.663 43.9558V40.7322C184.663 40.4169 184.911 40.1716 185.229 40.1716H188.487C188.805 40.1716 189.053 40.4169 189.053 40.7322V43.9558C189.053 44.2711 188.805 44.5164 188.487 44.5164ZM185.796 43.3952H187.902V41.3104H185.796V43.3952Z" fill="#748690" fill-opacity="0.8"/>
<path d="M223.663 38.6299H220.406C220.087 38.6299 219.839 38.3847 219.839 38.0693V34.8458C219.839 34.5304 220.087 34.2852 220.406 34.2852H223.663C223.982 34.2852 224.23 34.5304 224.23 34.8458V38.0693C224.23 38.3671 223.982 38.6299 223.663 38.6299ZM220.972 37.4912H223.079V35.4064H220.972V37.4912Z" fill="#748690" fill-opacity="0.8"/>
<path d="M223.663 44.5164H220.406C220.087 44.5164 219.839 44.2711 219.839 43.9558V40.7322C219.839 40.4169 220.087 40.1716 220.406 40.1716H223.663C223.982 40.1716 224.23 40.4169 224.23 40.7322V43.9558C224.23 44.2711 223.982 44.5164 223.663 44.5164ZM220.972 43.3952H223.079V41.3104H220.972V43.3952Z" fill="#748690" fill-opacity="0.8"/>
<path d="M209.076 49.9473H199.834C199.516 49.9473 199.268 49.702 199.268 49.3867V38.5247C199.268 38.2094 199.516 37.9641 199.834 37.9641H209.076C209.394 37.9641 209.642 38.2094 209.642 38.5247V49.3867C209.642 49.6845 209.376 49.9473 209.076 49.9473ZM200.401 48.8085H208.509V39.0853H200.401V48.8085Z" fill="#748690" fill-opacity="0.8"/>
<path d="M194.966 18.7981H189.354C189.035 18.7981 188.788 18.5528 188.788 18.2375V6.14917H184.557V18.2375C184.557 18.5528 184.309 18.7981 183.99 18.7981H178.378C178.059 18.7981 177.812 18.5528 177.812 18.2375V1.83943C177.812 1.52408 178.059 1.27881 178.378 1.27881H194.966C195.285 1.27881 195.533 1.52408 195.533 1.83943V18.255C195.533 18.5528 195.285 18.7981 194.966 18.7981ZM189.938 17.6768H194.4V2.40004H178.962V17.6768H183.441V5.58855C183.441 5.2732 183.689 5.02793 184.008 5.02793H189.372C189.69 5.02793 189.938 5.2732 189.938 5.58855V17.6768Z" fill="#748690" fill-opacity="0.8"/>
<path d="M207.128 37.0182H201.764C201.445 37.0182 201.198 36.7729 201.198 36.4576C201.198 36.1422 201.445 35.897 201.764 35.897H207.128C207.447 35.897 207.695 36.1422 207.695 36.4576C207.695 36.7729 207.447 37.0182 207.128 37.0182Z" fill="#748690" fill-opacity="0.8"/>
<path d="M204.455 49.9473C204.136 49.9473 203.888 49.702 203.888 49.3867V38.5247C203.888 38.2094 204.136 37.9641 204.455 37.9641C204.774 37.9641 205.021 38.2094 205.021 38.5247V49.3867C205.021 49.6845 204.756 49.9473 204.455 49.9473Z" fill="#748690" fill-opacity="0.8"/>
<path d="M179.051 49.9124L132.367 49.9299C132.013 49.9299 131.712 49.6846 131.712 49.3693V41.1702C131.712 40.8549 132.013 40.6096 132.367 40.6096H178.537C178.891 40.6096 179.192 40.8549 179.192 41.1702V49.3693C179.175 49.6846 179.405 49.9124 179.051 49.9124ZM132.58 48.8086H178.29V41.7309H132.58V48.8086Z" fill="#748690" fill-opacity="0.8"/>
<path d="M277.145 49.9124L230.461 49.9299C230.107 49.9299 229.806 49.6846 229.806 49.3693V41.1702C229.806 40.8549 230.107 40.6096 230.461 40.6096H276.631C276.985 40.6096 277.286 40.8549 277.286 41.1702V49.3693C277.286 49.6846 277.516 49.9124 277.145 49.9124ZM230.691 48.8086H276.401V41.7309H230.691V48.8086Z" fill="#748690" fill-opacity="0.8"/>
</svg>
