<svg width="27" class="left-arrow" height="39" viewBox="0 0 27 39" fill="none" xmlns="http://www.w3.org/2000/svg">
<g filter="url(#filter0_d)">
<path d="M4.49417 16.7096L18.2896 30.5048C18.6086 30.8241 19.0346 31 19.4887 31C19.9429 31 20.3688 30.8241 20.6879 30.5048L21.7038 29.4891C22.3649 28.8272 22.3649 27.7516 21.7038 27.0908L10.1195 15.5064L21.7167 3.90925C22.0357 3.58992 22.2119 3.16424 22.2119 2.71034C22.2119 2.25593 22.0357 1.83025 21.7167 1.51067L20.7007 0.495241C20.3814 0.175919 19.9557 1.90735e-06 19.5016 1.90735e-06C19.0474 1.90735e-06 18.6215 0.175919 18.3024 0.495241L4.49417 14.303C4.17434 14.6233 3.99868 15.051 3.99969 15.5057C3.99868 15.9621 4.17434 16.3895 4.49417 16.7096Z" fill="white"/>
</g>
<defs>
<filter id="filter0_d" x="-0.000305176" y="0" width="26.2122" height="39" filterUnits="userSpaceOnUse" color-interpolation-filters="sRGB">
<feFlood flood-opacity="0" result="BackgroundImageFix"/>
<feColorMatrix in="SourceAlpha" type="matrix" values="0 0 0 0 0 0 0 0 0 0 0 0 0 0 0 0 0 0 127 0"/>
<feOffset dy="4"/>
<feGaussianBlur stdDeviation="2"/>
<feColorMatrix type="matrix" values="0 0 0 0 0 0 0 0 0 0 0 0 0 0 0 0 0 0 0.25 0"/>
<feBlend mode="normal" in2="BackgroundImageFix" result="effect1_dropShadow"/>
<feBlend mode="normal" in="SourceGraphic" in2="effect1_dropShadow" result="shape"/>
</filter>
</defs>
</svg>
