<svg width="27" class="logo" height="27" viewBox="0 0 27 27" fill="none" xmlns="http://www.w3.org/2000/svg">
<path d="M18.7386 17.3519H17.7918L17.4653 17.0339C18.8039 15.5074 19.5548 13.5039 19.3263 11.3095C18.9672 7.6205 15.8656 4.6311 12.0458 4.37668C7.24648 4.02686 3.26341 7.90672 3.62254 12.6134C3.88372 16.3025 6.92 19.3555 10.7398 19.6735C12.9599 19.8643 15.0494 19.1647 16.6165 17.8608L16.943 18.1788V19.1329L22.4932 24.5392C22.787 24.8254 23.2441 24.8254 23.5052 24.5392L24.2888 23.776C24.5826 23.4898 24.5826 23.0445 24.2888 22.7901L18.7386 17.3519ZM12.1763 17.3201C8.58505 17.7654 5.61407 14.8396 6.07115 11.3731C6.36498 8.98799 8.35652 7.07986 10.7725 6.79364C14.3638 6.34841 17.3348 9.27421 16.8777 12.7406C16.5838 15.094 14.625 17.0021 12.1763 17.3201Z" fill="#202C45"/>
<path d="M19.1279 8.40186V3.20231C19.1279 2.91345 18.8952 2.68877 18.596 2.68877H16.3025C16.0033 2.68877 15.7706 2.91345 15.7706 3.20231V5.48112L11.6156 1.88638C11.4162 1.6938 11.0838 1.6938 10.8843 1.88638L1.07851 10.4239C0.71287 10.7449 0.945551 11.3226 1.44415 11.3226H3.17264C3.3056 11.3226 3.43856 11.2905 3.53828 11.1942L10.8843 4.80711C11.0838 4.61453 11.4162 4.61453 11.6156 4.80711L18.9617 11.1942C19.0614 11.2905 19.1944 11.3226 19.3273 11.3226H21.0558C21.5544 11.3226 21.7871 10.7449 21.4214 10.4239L19.1279 8.40186Z" fill="#202C45"/>
</svg>
