<svg width="12" height="12" viewBox="0 0 12 12" fill="none" xmlns="http://www.w3.org/2000/svg">
<path fill-rule="evenodd" clip-rule="evenodd" d="M12 0.374788C12 0.319326 11.9876 0.264563 11.9639 0.214443C11.9401 0.164323 11.9056 0.120094 11.8627 0.0849422C11.8198 0.0497908 11.7696 0.0245921 11.7158 0.0111617C11.662 -0.00226876 11.6059 -0.00359659 11.5515 0.00727383L7.875 0.742302L4.1985 0.00727383C4.14998 -0.00242459 4.10002 -0.00242459 4.0515 0.00727383L0.3015 0.757302C0.216521 0.774288 0.140048 0.820183 0.0850825 0.887183C0.0301171 0.954183 5.23365e-05 1.03815 0 1.12482L0 11.6252C3.34895e-05 11.6807 0.0123676 11.7354 0.0361138 11.7856C0.05986 11.8357 0.094427 11.8799 0.137325 11.9151C0.180222 11.9502 0.230382 11.9754 0.28419 11.9888C0.337999 12.0023 0.394116 12.0036 0.4485 11.9927L4.125 11.2577L7.8015 11.9927C7.85002 12.0024 7.89998 12.0024 7.9485 11.9927L11.6985 11.2427C11.7835 11.2257 11.86 11.1798 11.9149 11.1128C11.9699 11.0458 11.9999 10.9618 12 10.8752V0.374788ZM3.75 10.5677V0.832305L4.125 0.757302L4.5 0.832305V10.5677L4.1985 10.5077C4.14998 10.4979 4.10002 10.4979 4.0515 10.5077L3.75 10.5677ZM7.5 11.1677V1.43233L7.8015 1.49233C7.85002 1.50203 7.89998 1.50203 7.9485 1.49233L8.25 1.43233V11.1677L7.875 11.2427L7.5 11.1677Z" fill="#748690"/>
</svg>
