<svg width="15" class="svg-icon" height="14" viewBox="0 0 15 14" fill="none" xmlns="http://www.w3.org/2000/svg">
<path d="M13.175 9.1894C12.3178 9.1894 11.4762 9.05534 10.6787 8.79178C10.2879 8.65849 9.80751 8.78077 9.569 9.02573L7.99484 10.2141C6.16926 9.23956 5.04474 8.11541 4.08355 6.30354L5.23691 4.77039C5.53656 4.47114 5.64404 4.03401 5.51527 3.62385C5.25058 2.82213 5.11613 1.98093 5.11613 1.12343C5.11616 0.503964 4.6122 0 3.99277 0H1.42173C0.802303 0 0.29834 0.503964 0.29834 1.12339C0.29834 8.22365 6.07472 14 13.175 14C13.7944 14 14.2984 13.496 14.2984 12.8766V10.3127C14.2983 9.69336 13.7944 9.1894 13.175 9.1894Z" fill="#748690"/>
</svg>
