<svg width="18" class="svg-icon" height="22" viewBox="0 0 18 22" fill="none" xmlns="http://www.w3.org/2000/svg">
<path d="M7.01746 1.328H10.6943V1.94669H12.0221V1.24139C12.0223 0.556915 11.4657 0 10.7816 0H6.93018C6.24603 0 5.68945 0.556915 5.68945 1.24139V1.94669H7.01746V1.328Z" fill="#748690"/>
<path d="M15.0888 7.20801H2.6232C2.28163 7.20801 2.01274 7.49939 2.04027 7.83995L3.08243 20.7265C3.14051 21.4459 3.74056 22 4.46146 22H13.2504C13.9713 22 14.5714 21.4459 14.6294 20.7264L15.6716 7.83995C15.6993 7.49939 15.4304 7.20801 15.0888 7.20801ZM5.64159 20.6255C5.62766 20.6263 5.61373 20.6268 5.59996 20.6268C5.25185 20.6268 4.95963 20.3558 4.93798 20.0036L4.28488 9.42442C4.26239 9.05835 4.54085 8.7433 4.90676 8.72081C5.27149 8.69865 5.58788 8.97644 5.61037 9.34268L6.26329 19.9219C6.28595 20.288 6.0075 20.6028 5.64159 20.6255ZM9.52741 19.9628C9.52741 20.3294 9.23015 20.6267 8.86341 20.6267C8.49666 20.6267 8.19941 20.3294 8.19941 19.9628V9.38347C8.19941 9.01672 8.49666 8.71947 8.86341 8.71947C9.22999 8.71947 9.52741 9.01672 9.52741 9.38347V19.9628ZM13.4272 9.42258L12.8036 20.0018C12.783 20.3546 12.4902 20.6267 12.1415 20.6267C12.1284 20.6267 12.1151 20.6263 12.1018 20.6257C11.7358 20.604 11.4565 20.2898 11.4781 19.9237L12.1015 9.34436C12.123 8.97829 12.4362 8.69899 12.8033 8.72064C13.1693 8.74213 13.4486 9.0565 13.4272 9.42258Z" fill="#748690"/>
<path d="M17.3848 5.15891L16.9487 3.85172C16.8337 3.50713 16.5111 3.27466 16.1477 3.27466H1.56371C1.20049 3.27466 0.877724 3.50713 0.762917 3.85172L0.326851 5.15891C0.24276 5.41101 0.352196 5.66815 0.556465 5.79639C0.639717 5.84859 0.738243 5.87997 0.846504 5.87997H16.8651C16.9734 5.87997 17.0721 5.84859 17.1552 5.79622C17.3594 5.66798 17.4689 5.41084 17.3848 5.15891Z" fill="#748690"/>
</svg>
